<?xml version="1.0" encoding="UTF-8" standalone="no"?>
<svg
   viewBox="0 0 415.53 122.66"
   version="1.1"
   id="svg146"
   sodipodi:docname="logo blanc.svg"
   xml:space="preserve"
   inkscape:version="1.2.1 (9c6d41e410, 2022-07-14)"
   inkscape:export-filename="logo blanc.png"
   inkscape:export-xdpi="500"
   inkscape:export-ydpi="500"
   xmlns:inkscape="http://www.inkscape.org/namespaces/inkscape"
   xmlns:sodipodi="http://sodipodi.sourceforge.net/DTD/sodipodi-0.dtd"
   xmlns:xlink="http://www.w3.org/1999/xlink"
   xmlns="http://www.w3.org/2000/svg"
   xmlns:svg="http://www.w3.org/2000/svg"><sodipodi:namedview
     id="namedview148"
     pagecolor="#000000"
     bordercolor="#000000"
     borderopacity="1"
     inkscape:showpageshadow="2"
     inkscape:pageopacity="0"
     inkscape:pagecheckerboard="0"
     inkscape:deskcolor="#d1d1d1"
     showgrid="false"
     inkscape:zoom="2.0590552"
     inkscape:cx="232.14531"
     inkscape:cy="60.950284"
     inkscape:window-width="1920"
     inkscape:window-height="991"
     inkscape:window-x="1911"
     inkscape:window-y="-9"
     inkscape:window-maximized="1"
     inkscape:current-layer="formule_polymtl" /><defs
     id="defs78"><color-profile
       name="Agfa-:-Swop-Standard"
       xlink:href="file:///C:/WINDOWS/system32/spool/drivers/color/RSWOP.icm"
       id="color-profile1098" /><color-profile
       name="sRGB-IEC61966-2.1"
       xlink:href="file:///C:/WINDOWS/system32/spool/drivers/color/sRGB%20Color%20Space%20Profile.icm"
       id="color-profile1100" /><style
       id="style76">.cls-1{fill:#151b16;}.cls-2{fill:#a84f48;}</style></defs><g
     id="formule_polymtl"
     data-name="formule polymtl"><path
       id="path850"
       class="cls-1"
       d="M229.11,111.56V86.19h16.5v4.93h-9.39v4.61h8.7v5.11h-8.7v10.72Z"
       transform="translate(-36.24 -76.5)"
       style="fill:#e0e0e0;fill-opacity:1" /><path
       id="path852"
       class="cls-1"
       d="M264.07,101.17V96.59c0-2.81-.22-4.55-.65-5.21a2.49,2.49,0,0,0-2.3-1,2.44,2.44,0,0,0-2.26,1q-.63,1-.63,5.19v4.58c0,2.74.21,4.47.63,5.17a3.06,3.06,0,0,0,4.58,0c.42-.69.63-2.41.63-5.19Zm-13-2.29a40.41,40.41,0,0,1,.4-6.69,7.8,7.8,0,0,1,1.29-3.3,7.7,7.7,0,0,1,3.4-2.48,13.84,13.84,0,0,1,5.05-.83,13.54,13.54,0,0,1,5,.83,7.1,7.1,0,0,1,4.72,5.8,40.57,40.57,0,0,1,.39,6.67,40.82,40.82,0,0,1-.39,6.67,7.14,7.14,0,0,1-4.72,5.8,13.66,13.66,0,0,1-5,.82,13.85,13.85,0,0,1-5.05-.82,7.88,7.88,0,0,1-3.4-2.49,7.75,7.75,0,0,1-1.29-3.29,40.58,40.58,0,0,1-.4-6.69Z"
       transform="translate(-36.24 -76.5)"
       style="fill:#e0e0e0;fill-opacity:1" /><path
       id="path854"
       class="cls-1"
       d="M283.71,96.75l.45,0,.43,0A5,5,0,0,0,287.7,96a3,3,0,0,0,.92-2.5,2.69,2.69,0,0,0-.92-2.31,5.29,5.29,0,0,0-3.11-.69l-.43,0h-.45Zm-7,14.81V86.19h8a36,36,0,0,1,5.68.32,7.23,7.23,0,0,1,2.87,1,5.72,5.72,0,0,1,1.92,2.19,7.77,7.77,0,0,1-.27,6.78A6.72,6.72,0,0,1,292,98.94c2.19.82,3.34,2.74,3.46,5.79v.08q0,.48,0,1.38.09,4.29,1.69,5.37H289a9.71,9.71,0,0,1-.41-1.65,13.63,13.63,0,0,1-.12-1.86c0-.4,0-.89,0-1.46s0-1,0-1.14a5.12,5.12,0,0,0-.72-3.18,3.32,3.32,0,0,0-2.62-.86h-1.45v10.15Z"
       transform="translate(-36.24 -76.5)"
       style="fill:#e0e0e0;fill-opacity:1" /><path
       id="path856"
       class="cls-1"
       d="M302.64,111.56V86.19h9.9L315.23,97c0,.06.12.74.32,2s.42,2.59.65,3.9c.17-1,.38-2.19.62-3.62s.42-2.26.46-2.41L320,86.19h9.8v25.37h-6.68l.61-19.6-4.79,19.6H313.5L308.71,92l.61,19.6Z"
       transform="translate(-36.24 -76.5)"
       style="fill:#e0e0e0;fill-opacity:1" /><path
       id="path858"
       class="cls-1"
       d="M335.17,86.19h7.15v15.9c0,2.4.18,3.89.53,4.46a2.12,2.12,0,0,0,1.92.86,2.06,2.06,0,0,0,1.93-.89c.35-.59.53-2.07.53-4.43V86.19h7v16.2a20.89,20.89,0,0,1-.29,4.11,6.81,6.81,0,0,1-.92,2.36,6.36,6.36,0,0,1-3.13,2.52,14.89,14.89,0,0,1-5.32.79,13.88,13.88,0,0,1-4.93-.74,6.51,6.51,0,0,1-3-2.41,7.69,7.69,0,0,1-1.14-3,41.71,41.71,0,0,1-.31-6.18Z"
       transform="translate(-36.24 -76.5)"
       style="fill:#e0e0e0;fill-opacity:1" /><path
       id="path860"
       class="cls-1"
       d="M375.24,111.56H359.66V86.19h7.07v20.25h8.51Z"
       transform="translate(-36.24 -76.5)"
       style="fill:#e0e0e0;fill-opacity:1" /><path
       id="path862"
       class="cls-1"
       d="M380.66,111.56V86.19h16.46v4.93h-9.43v4.66h8.7v5.09h-8.7v5.54h9.43v5.15Z"
       transform="translate(-36.24 -76.5)"
       style="fill:#e0e0e0;fill-opacity:1" /><path
       id="path864"
       class="cls-2"
       d="M183.85,134.82h1.73a4,4,0,0,0,3-1.12,4.36,4.36,0,0,0,1.08-3.15,2.28,2.28,0,0,0-.67-1.76,2.61,2.61,0,0,0-1.87-.63h-1.61Zm-10.74,14.39,6.44-25.36h6.72a31,31,0,0,1,5.32.33,7,7,0,0,1,2.85,1.12,5.1,5.1,0,0,1,1.71,2,6.23,6.23,0,0,1,.57,2.73c0,3.08-.88,5.37-2.63,6.89s-4.39,2.26-7.94,2.26h-3.38l-2.53,10Z"
       transform="translate(-36.24 -76.5)" /><path
       id="path866"
       class="cls-2"
       d="M207,133.19l-1.69,6.65c-.25.92-.44,1.68-.55,2.28a7.3,7.3,0,0,0-.18,1.33,1.59,1.59,0,0,0,.55,1.27,2.24,2.24,0,0,0,1.49.48,2.61,2.61,0,0,0,2.11-.88,13.82,13.82,0,0,0,1.65-4.48l1.68-6.62c.25-.92.44-1.68.56-2.27a8.28,8.28,0,0,0,.17-1.34,1.55,1.55,0,0,0-.59-1.27,2.31,2.31,0,0,0-1.51-.47,2.57,2.57,0,0,0-2.08.85,13.74,13.74,0,0,0-1.61,4.47Zm-9.22,10.06a15.27,15.27,0,0,1,.16-1.89c.1-.77.26-1.62.45-2.54q.85-4.15,1.65-6.69a26,26,0,0,1,1.93-4.54,7.54,7.54,0,0,1,3.45-3.27,13.35,13.35,0,0,1,5.68-1.08,10.07,10.07,0,0,1,6.31,1.71,6,6,0,0,1,2.18,5,12.19,12.19,0,0,1-.16,1.76q-.15,1.08-.45,2.55c-.54,2.53-1.09,4.7-1.67,6.51a25.83,25.83,0,0,1-1.79,4.48A7.94,7.94,0,0,1,212,148.7a12.84,12.84,0,0,1-5.72,1.12,10.13,10.13,0,0,1-6.31-1.69,5.83,5.83,0,0,1-2.18-4.88Z"
       transform="translate(-36.24 -76.5)" /><path
       id="path868"
       class="cls-2"
       d="M219.63,149.21l6.44-25.36h7.11L228,144.22h9.37l-1.24,5Z"
       transform="translate(-36.24 -76.5)" /><path
       id="path870"
       class="cls-2"
       d="M239.93,149.21l3-11.84-4.44-13.52h7.05l1.81,7.46,4.34-7.46h7.9L249.87,138,247,149.21Z"
       transform="translate(-36.24 -76.5)" /><path
       id="path872"
       class="cls-2"
       d="M259.88,149.21,265,128.84h-5.92l1.28-5h18.68l-1.25,5h-5.64L267,149.21Z"
       transform="translate(-36.24 -76.5)" /><path
       id="path874"
       class="cls-2"
       d="M276,149.21l6.44-25.36h16.13l-1.24,4.82h-9l-1.22,4.83h8.7l-1.26,4.86h-8.68l-1.49,5.93h9.37l-1.24,4.92Z"
       transform="translate(-36.24 -76.5)" /><path
       id="path876"
       class="cls-2"
       d="M317.72,139.78c-.83,3.64-2.09,6.23-3.78,7.75s-4.09,2.29-7.25,2.29q-4.17,0-6.38-1.69a6,6,0,0,1-2.18-5,13.2,13.2,0,0,1,.14-1.63c.1-.7.27-1.59.51-2.69q.83-3.9,1.65-6.59a25.31,25.31,0,0,1,1.77-4.4,7.87,7.87,0,0,1,3.53-3.46,13,13,0,0,1,5.76-1.13,10.22,10.22,0,0,1,6.21,1.63,5.42,5.42,0,0,1,2.2,4.61,16,16,0,0,1-.1,1.61,17.89,17.89,0,0,1-.32,1.87h-6.75c.15-.67.27-1.26.35-1.77a7.31,7.31,0,0,0,.14-1.23,2,2,0,0,0-.57-1.55,2.15,2.15,0,0,0-1.57-.54,2.59,2.59,0,0,0-2.09.85,13.74,13.74,0,0,0-1.61,4.47l-1.69,6.65c-.25.92-.43,1.68-.55,2.28a7.09,7.09,0,0,0-.17,1.33,1.59,1.59,0,0,0,.55,1.27,2.22,2.22,0,0,0,1.49.48,2.62,2.62,0,0,0,2.18-1,13.93,13.93,0,0,0,1.65-4.44Z"
       transform="translate(-36.24 -76.5)" /><path
       id="path878"
       class="cls-2"
       d="M319.5,149.21,326,123.85H333l-2.42,9.58h4.84l2.45-9.58H345l-6.44,25.36h-7.09l2.75-10.75h-4.83l-2.74,10.75Z"
       transform="translate(-36.24 -76.5)" /><path
       id="path880"
       class="cls-2"
       d="M343.67,149.21l6.4-25.36h7.19l1.34,8.56c0,.27.12.94.23,2s.3,2.56.49,4.45h.16c.28-1.78.52-3.32.73-4.62s.36-2.14.43-2.5l2-7.92h6.68l-6.44,25.36h-7.15l-1.26-8.59c-.18-1.3-.34-2.52-.47-3.66s-.24-2.24-.33-3.26h-.28c-.31,2.46-.55,4.19-.71,5.19a22.64,22.64,0,0,1-.43,2.34l-1.92,8Z"
       transform="translate(-36.24 -76.5)" /><path
       id="path882"
       class="cls-2"
       d="M368,149.21l6.4-25.36h7.17l-6.44,25.36Z"
       transform="translate(-36.24 -76.5)" /><path
       id="path884"
       class="cls-2"
       d="M391,133.19l-1.69,6.65c-.25.92-.43,1.68-.55,2.28a7.09,7.09,0,0,0-.17,1.33,1.59,1.59,0,0,0,.55,1.27,2.22,2.22,0,0,0,1.49.48,2.58,2.58,0,0,0,2.1-.88,13.35,13.35,0,0,0,1.65-4.48l1.69-6.62c.25-.92.43-1.68.55-2.27a7.5,7.5,0,0,0,.18-1.34,1.57,1.57,0,0,0-.59-1.27,2.33,2.33,0,0,0-1.51-.47,2.59,2.59,0,0,0-2.09.85,13.74,13.74,0,0,0-1.61,4.47Zm3.3,16.16a17.38,17.38,0,0,1-2,.34,15,15,0,0,1-2,.13c-2.79,0-4.92-.56-6.37-1.69a6,6,0,0,1-2.16-5,11.48,11.48,0,0,1,.14-1.63c.1-.7.27-1.59.51-2.69q.83-3.9,1.65-6.59a25.31,25.31,0,0,1,1.77-4.4,7.87,7.87,0,0,1,3.53-3.46,13,13,0,0,1,5.76-1.13c2.76,0,4.86.57,6.3,1.73a5.94,5.94,0,0,1,2.18,5,22.71,22.71,0,0,1-.55,4c-.36,1.83-.88,3.9-1.55,6.19a31.66,31.66,0,0,1-1.31,3.88,12.16,12.16,0,0,1-1.42,2.4l3.62,3.28-4.13,3.13Z"
       transform="translate(-36.24 -76.5)" /><path
       id="path886"
       class="cls-2"
       d="M410,123.85h7.07l-4.14,16.49c-.24.92-.42,1.65-.53,2.19a6.21,6.21,0,0,0-.16,1.18,1.43,1.43,0,0,0,.51,1.17,2.23,2.23,0,0,0,1.43.41q2.35,0,3.6-4.89l.1-.39,4.1-16.16H429l-4.22,16.7a29.13,29.13,0,0,1-1.41,4.51,6.89,6.89,0,0,1-1.4,2.19,8.17,8.17,0,0,1-3.1,1.95,12.75,12.75,0,0,1-4.23.62c-3.13,0-5.46-.5-7-1.51a5.13,5.13,0,0,1-2.32-4.6,12.81,12.81,0,0,1,.26-2.15q.25-1.41.78-3.51Z"
       transform="translate(-36.24 -76.5)" /><path
       id="path888"
       class="cls-2"
       d="M427.63,149.21l6.44-25.36H450.2L449,128.67h-9l-1.22,4.83h8.7l-1.25,4.86h-8.69L436,144.29h9.37l-1.24,4.92Z"
       transform="translate(-36.24 -76.5)" /><path
       id="path890"
       class="cls-1"
       d="M176.25,187V161.63h9.9l2.69,10.79c0,.06.12.74.32,2s.42,2.6.65,3.91c.17-1,.38-2.19.62-3.63s.42-2.25.46-2.4l2.67-10.71h9.8V187h-6.68l.61-19.6L192.5,187h-5.39l-4.79-19.6.61,19.6Z"
       transform="translate(-36.24 -76.5)"
       style="fill:#e0e0e0;fill-opacity:1" /><path
       id="path892"
       class="cls-1"
       d="M234.23,176.61V172c0-2.82-.22-4.55-.65-5.21a2.5,2.5,0,0,0-2.3-1,2.44,2.44,0,0,0-2.26,1q-.63,1-.63,5.19v4.58c0,2.74.21,4.46.63,5.17a3.05,3.05,0,0,0,4.58,0c.42-.68.63-2.41.63-5.18Zm-13-2.29a39.32,39.32,0,0,1,.4-6.69,7.75,7.75,0,0,1,1.29-3.3,7.63,7.63,0,0,1,3.4-2.48,13.84,13.84,0,0,1,5-.83,13.58,13.58,0,0,1,5,.83,7.62,7.62,0,0,1,3.38,2.48,7.53,7.53,0,0,1,1.33,3.31,39.35,39.35,0,0,1,.4,6.68,39.45,39.45,0,0,1-.4,6.67,7.53,7.53,0,0,1-1.33,3.31,7.7,7.7,0,0,1-3.38,2.49,13.87,13.87,0,0,1-5,.82,14.06,14.06,0,0,1-5-.82,7.88,7.88,0,0,1-3.4-2.49,7.75,7.75,0,0,1-1.29-3.3A39.27,39.27,0,0,1,221.18,174.32Z"
       transform="translate(-36.24 -76.5)"
       style="fill:#e0e0e0;fill-opacity:1" /><path
       id="path894"
       class="cls-1"
       d="M259.16,187V161.63h7.37l5.87,15.65q-.34-4-.53-6.82c-.1-1.91-.15-3.52-.15-4.84v-4H278V187h-7.39l-5.91-16.13q.39,3.15.59,6.11c.15,2,.22,3.88.22,5.74V187Z"
       transform="translate(-36.24 -76.5)"
       style="fill:#e0e0e0;fill-opacity:1" /><path
       id="path896"
       class="cls-1"
       d="M300.07,187V166.56h-5.66v-4.93h18.7v4.93h-5.95V187Z"
       transform="translate(-36.24 -76.5)"
       style="fill:#e0e0e0;fill-opacity:1" /><path
       id="path898"
       class="cls-1"
       d="M336.42,172.19l.45,0h.43a4.91,4.91,0,0,0,3.1-.74,3,3,0,0,0,.93-2.5,2.66,2.66,0,0,0-.93-2.31,5.23,5.23,0,0,0-3.1-.69l-.43,0h-.45Zm-7,14.81V161.63h8a37.64,37.64,0,0,1,5.68.31,7.34,7.34,0,0,1,2.86,1,5.67,5.67,0,0,1,1.93,2.19,6.92,6.92,0,0,1,.65,3.1,6.78,6.78,0,0,1-.93,3.67,6.62,6.62,0,0,1-2.83,2.44q3.28,1.22,3.46,5.78v.09c0,.31,0,.78,0,1.38.05,2.85.62,4.64,1.69,5.37h-8.27a10,10,0,0,1-.41-1.65,13.63,13.63,0,0,1-.12-1.86c0-.41,0-.89,0-1.47s0-1,0-1.13a5,5,0,0,0-.73-3.18,3.28,3.28,0,0,0-2.61-.86h-1.45V187Z"
       transform="translate(-36.24 -76.5)"
       style="fill:#e0e0e0;fill-opacity:1" /><path
       id="path900"
       class="cls-1"
       d="M366.4,187V161.63h16.46v4.93h-9.43v4.66h8.7v5.09h-8.7v5.53h9.43V187Zm5.07-27.49,3.91-4.7h5.79l-6.87,4.7Z"
       transform="translate(-36.24 -76.5)"
       style="fill:#e0e0e0;fill-opacity:1" /><path
       id="path902"
       class="cls-1"
       d="M407.19,177.56h4.06l-2-11.07ZM398.44,187l6.6-25.37h8.41L420,187H412.9l-.88-4.86h-5.56l-.89,4.86Z"
       transform="translate(-36.24 -76.5)"
       style="fill:#e0e0e0;fill-opacity:1" /><path
       id="path904"
       class="cls-1"
       d="M451.76,187H436.19V161.63h7.07v20.25h8.5Z"
       transform="translate(-36.24 -76.5)"
       style="fill:#e0e0e0;fill-opacity:1" /></g><g
     id="g3378"
     transform="matrix(1.0255853,0,0,1.0255853,-745.60051,267.78032)"
     style="fill:#e0e0e0;fill-opacity:1">
	<path
   id="path3351"
   inkscape:connector-curvature="0"
   d="m 786.8,-141.5 c -33,0 -59.8,-26.8 -59.8,-59.8 0,-33 26.8,-59.8 59.8,-59.8 33,0 59.8,26.8 59.8,59.8 0,33 -26.8,59.8 -59.8,59.8 z m 0,-117.2 c -31.7,0 -57.4,25.8 -57.4,57.4 0,31.6 25.8,57.4 57.4,57.4 31.6,0 57.4,-25.8 57.4,-57.4 0,-31.6 -25.7,-57.4 -57.4,-57.4 z"
   style="fill:#e0e0e0;fill-opacity:1" />
	<path
   id="tête_11_"
   inkscape:connector-curvature="0"
   sodipodi:nodetypes="ccccccc"
   d="m 798.4,-226.6 v 13.4 l -10.7,6.8 -9.3,-6.8 v -13.4 l 10,-6.7 z"
   style="fill:#e0e0e0;fill-opacity:1" />
	<g
   id="antène_11_"
   style="fill:#e0e0e0;fill-opacity:1">
		<path
   id="antène_droite_11_"
   inkscape:connector-curvature="0"
   d="m 790.1,-234.8 6.6,-7.8 -5.3,8.6 z"
   style="fill:#e0e0e0;fill-opacity:1" />
		<path
   id="antène_gauche_11_"
   inkscape:connector-curvature="0"
   d="m 785,-234 -5.3,-8.6 6.6,7.8 z"
   style="fill:#e0e0e0;fill-opacity:1" />
	</g>
	<path
   id="pattes_avant_gauche_11_"
   d="m 771.7,-216.1 -25.8,-8.7 -1.2,8.6 2.3,-6.7 26.6,9 v -12.3 l -11.2,-3.9 9.4,4.8 z"
   style="fill:#e0e0e0;fill-opacity:1" />
	<path
   id="pattes_avant_droite_11_"
   d="m 804.5,-216.1 25.8,-8.7 1.1,8.6 -1.9,-6.7 -26.2,9 v -12.3 l 10.9,-3.9 -9.6,4.8 v 9.2 z"
   style="fill:#e0e0e0;fill-opacity:1" />
	<path
   id="aile_droite_13_"
   d="m 807.1,-209.6 22.6,2.1 -3.1,-11.5 -26.5,8.2 36.9,29.1 -5.8,-19.7 z"
   style="fill:#e0e0e0;fill-opacity:1" />
	<path
   id="aile_gauche_11_"
   d="m 768.7,-209.1 -22.7,2.1 3.1,-11.5 26.5,8.3 -36.9,29 5.8,-19.7 z"
   style="fill:#e0e0e0;fill-opacity:1" />
	<g
   id="dos_11_"
   style="fill:#e0e0e0;fill-opacity:1">
		<path
   id="path3370"
   inkscape:connector-curvature="0"
   d="m 801.4,-174.3 -5.4,7 11.3,-11.9 -4.3,-25.9 -15,-12.4 -15,12.4 -4.4,25.9 11.3,11.9 -5.4,-7 -3.8,-5.5 3,-15.8 v 15.4 l 12.5,10.6 2.1,10.2 1.8,-9.8 13.3,-11 v -15 l 2.5,15.4 z m -13.4,3.5 -8.2,-6.7 8.2,-7 8.3,6.8 z m 12,-10.7 -3,3 -9.2,-7.8 -8.4,7.8 -2.6,-3 v -2.2 l 11.6,-10.6 11.6,10.6 z m 0,-4 -11.6,-10.6 -11.6,10.6 v -8.6 l 11.6,-10.6 11.6,10.6 z m 0,-10.3 -11.6,-10.6 -11.6,10.6 v -8.1 l 11.6,-10.7 11.6,10.7 z"
   style="fill:#e0e0e0;fill-opacity:1" />
	</g>
</g></svg>
